<?xml version="1.0" encoding="UTF-8"?>
<svg version="1.1" xmlns="http://www.w3.org/2000/svg" width="500" height="500">
<path d="M0 0 C165 0 330 0 500 0 C500 165 500 330 500 500 C335 500 170 500 0 500 C0 335 0 170 0 0 Z " fill="#000000" transform="translate(0,0)"/>
<path d="M0 0 C25.47517167 2.69655377 50.92283389 5.59095892 76.3612988 8.61315513 C80.21991462 9.07134989 84.07867202 9.52834641 87.93742603 9.9853757 C97.02318709 11.06151822 106.10871698 12.13959596 115.1940918 13.21899414 C124.54151126 14.32949037 133.8893247 15.43662564 143.23732716 16.54220265 C151.32831255 17.49922826 159.41905949 18.45825087 167.50961536 19.41890079 C172.31571492 19.98954574 177.12189984 20.55944491 181.92831612 21.12741661 C186.416277 21.6578458 190.9039351 22.19076577 195.39136887 22.72563553 C197.03603364 22.92124379 198.68080402 23.11596641 200.3256855 23.30974388 C202.56686761 23.57391111 204.8076482 23.84125704 207.0483551 24.10942078 C208.30187051 24.25816493 209.55538591 24.40690908 210.84688663 24.56016064 C214 25 214 25 218 26 C219.65 33.59 221.3 41.18 223 49 C223.99 47.35 224.98 45.7 226 44 C228.5 43.0625 228.5 43.0625 231 43 C231.99 43.66 232.98 44.32 234 45 C234.36508179 47.41931152 234.36508179 47.41931152 234.35302734 50.50585938 C234.35668304 51.66307495 234.36033875 52.82029053 234.36410522 54.01257324 C234.35480988 55.27686157 234.34551453 56.5411499 234.3359375 57.84375 C234.34525859 59.85038776 234.35461189 61.85702582 234.36561012 63.86365509 C234.38785659 68.7955103 234.37854008 73.72732757 234.36035156 78.65917969 C234.30851145 96.22047032 235.35423672 112.85962818 239.32925415 130.06074524 C240.29431387 134.28970376 241.15868995 138.53813765 242.02938843 142.78735352 C242.6057084 145.59356553 243.19574852 148.39655687 243.7890625 151.19921875 C244.74680336 155.74797109 245.66684609 160.303817 246.57568359 164.86254883 C246.71330612 165.55180702 246.85092865 166.24106522 246.99272156 166.95121002 C247.32870593 168.63409513 247.66438461 170.31704127 248 172 C248.00358253 171.09828536 248.00358253 171.09828536 248.00723743 170.17835426 C248.06632049 155.56509412 248.14182731 140.95198311 248.23571491 126.33890724 C248.28072005 119.27217726 248.32012363 112.20549821 248.34643555 105.13867188 C248.37182421 98.32400581 248.41269673 91.509575 248.46318626 84.69504929 C248.47992398 82.08985571 248.49139503 79.48462301 248.49761391 76.87938309 C248.50718002 73.24177382 248.53514943 69.6047516 248.56762695 65.96728516 C248.56619186 64.8804393 248.56475677 63.79359344 248.5632782 62.67381287 C248.57581635 61.68660751 248.58835449 60.69940216 248.60127258 59.68228149 C248.60588155 58.82132685 248.61049051 57.9603722 248.61523914 57.07332802 C248.74221023 56.38912977 248.86918131 55.70493153 249 55 C252 53 252 53 254.5625 53.25 C257 54 257 54 259 56 C259.25447559 58.42414761 259.25447559 58.42414761 259.26069641 61.53526306 C259.26778122 62.71165848 259.27486603 63.88805389 259.28216553 65.10009766 C259.27968811 66.39729736 259.27721069 67.69449707 259.2746582 69.03100586 C259.27900359 70.40572894 259.28418615 71.7804496 259.29014587 73.15516663 C259.30356622 76.89482695 259.30411117 80.6343864 259.30158257 84.37406611 C259.30051487 87.49297897 259.3053911 90.61187125 259.310188 93.73077971 C259.32129377 101.08738108 259.32171465 108.4439314 259.31567383 115.80053711 C259.30963257 123.39638527 259.32194638 130.99204826 259.3432439 138.58786482 C259.36084251 145.10340907 259.366864 151.6188943 259.36360615 158.13446146 C259.36179029 162.0285292 259.36445941 165.92246487 259.37832069 169.81651115 C259.3908662 173.47812592 259.38898638 177.13945147 259.37590981 180.80106163 C259.37240398 182.78883996 259.38374621 184.77662698 259.39547729 186.76437378 C259.38846298 187.94358902 259.38144867 189.12280426 259.3742218 190.3377533 C259.37447341 191.87832098 259.37447341 191.87832098 259.37473011 193.45001125 C259 196 259 196 257.60161114 197.85389042 C256 199 256 199 254 199 C254.12528076 199.61974197 254.25056152 200.23948395 254.37963867 200.87800598 C255.68072043 207.31714368 256.97777023 213.75708406 258.27246094 220.19750977 C258.75644814 222.60234147 259.2414698 225.00696522 259.72753906 227.41137695 C260.42523654 230.86355562 261.11923416 234.31646027 261.8125 237.76953125 C262.14060669 239.38683891 262.14060669 239.38683891 262.4753418 241.03681946 C262.67554932 242.03763046 262.87575684 243.03844147 263.08203125 244.06958008 C263.25968018 244.95116287 263.4373291 245.83274567 263.62036133 246.74104309 C264 249 264 249 264 252 C253.76723953 251.41545699 243.63512186 250.46810373 233.4597168 249.22167969 C231.96906075 249.04211284 230.47836213 248.86289918 228.98762512 248.68400574 C224.97712332 248.20174448 220.9672244 247.71463322 216.95742011 247.22661114 C212.70136336 246.70951777 208.44474438 246.19709309 204.18818665 245.68414307 C196.09974746 244.70873098 188.01179583 243.72933705 179.9240225 242.74842095 C169.99075926 241.54385088 160.05691825 240.34407405 150.12304688 239.14453125 C146.59505791 238.71850111 143.06707267 238.2924402 139.53909302 237.86633301 C138.67546335 237.76202548 137.81183369 237.65771794 136.92203343 237.55024958 C130.9131196 236.82435259 124.90438545 236.09698024 118.89572144 235.36901855 C104.83174081 233.66559125 90.76771299 231.96404966 76.69775391 230.31054688 C75.66890107 230.18940144 74.64004824 230.068256 73.58001804 229.94343948 C69.08294529 229.4142969 64.58555572 228.88829559 60.08732605 228.36907959 C58.60613889 228.19569487 57.12496225 228.02222018 55.64379883 227.84863281 C54.41349442 227.70645325 53.18319 227.56427368 51.91560364 227.41778564 C49 227 49 227 46 226 C45.15396014 223.16079861 44.50105148 220.45920071 43.9375 217.5625 C43.76831055 216.7473291 43.59912109 215.9321582 43.42480469 215.09228516 C42.9373295 212.73051955 42.46694638 210.36589629 42 208 C41.65388672 206.30810547 41.65388672 206.30810547 41.30078125 204.58203125 C40.85488293 202.39048843 40.4249735 200.19569642 40 198 C39.95101562 199.20398438 39.90203125 200.40796875 39.8515625 201.6484375 C39.77653657 203.22398198 39.70098867 204.79950166 39.625 206.375 C39.57859375 207.56609375 39.57859375 207.56609375 39.53125 208.78125 C39.2265625 214.7734375 39.2265625 214.7734375 37 217 C34.26199855 217.35102583 32.67315714 217.46045792 30.35992432 215.87814331 C28.36753798 213.1265291 28.64962246 211.01032866 28.67871094 207.63720703 C28.67976334 206.9939447 28.68081573 206.35068237 28.68190002 205.68792725 C28.68551211 204.28512731 28.69568208 202.88233268 28.71157074 201.47961807 C28.73478984 199.21739499 28.73565425 196.95614354 28.73028564 194.69381714 C28.71772384 188.25836825 28.73262911 181.82339735 28.79052734 175.38818359 C28.97491718 152.7839469 26.86513322 131.79241922 22.02514648 109.71337891 C20.97214054 104.90606359 19.98367658 100.08676511 19.00585938 95.26367188 C17.16826264 86.223443 15.28682578 77.19282639 13.39379883 68.1640625 C12.52174275 64.00117457 11.65364714 59.83746102 10.78515625 55.67382812 C10.10429562 52.41143141 9.42326579 49.14907003 8.7421875 45.88671875 C8.57827263 45.10149715 8.41435776 44.31627556 8.24547577 43.50725937 C6.64001795 35.81834382 5.03036123 28.13048553 3.39550781 20.44775391 C3.15800812 19.32577103 2.92050842 18.20378815 2.67581177 17.04780579 C2.2461443 15.01957078 1.81335407 12.99199346 1.37667847 10.96525574 C1.19194977 10.09089371 1.00722107 9.21653168 0.81689453 8.31567383 C0.65754425 7.57102371 0.49819397 6.8263736 0.33401489 6.05915833 C0 4 0 4 0 0 Z " fill="#3096C9" transform="translate(106,124)"/>
<path d="M0 0 C2.8883003 2.8883003 2.2516348 4.93802043 2.25396729 8.98461914 C2.25864726 10.0753742 2.25864726 10.0753742 2.26342177 11.18816471 C2.27143163 13.63724311 2.26506662 16.08607578 2.25878906 18.53515625 C2.2614976 20.28587998 2.26505776 22.03660258 2.26940918 23.787323 C2.27855177 28.55167797 2.27498125 33.31594664 2.26865101 38.08030319 C2.26360067 43.05752552 2.26827976 48.03474028 2.27142334 53.01196289 C2.27506581 61.37159558 2.27025653 69.73119298 2.26074219 78.09082031 C2.2498571 87.76679723 2.25338248 97.44268987 2.264395 107.11866474 C2.27345988 115.41421641 2.27475707 123.70974265 2.26951766 132.00529766 C2.26639355 136.96514455 2.26600066 141.92495178 2.27259064 146.88479614 C2.27835188 151.54687587 2.27438971 156.20884656 2.26280212 160.87091446 C2.26014897 162.5858352 2.26093172 164.30076506 2.26532745 166.01568222 C2.27075867 168.34904062 2.26397865 170.68204526 2.25396729 173.01538086 C2.25321323 174.32357285 2.25245918 175.63176483 2.25168228 176.979599 C2 180 2 180 0 182 C-2.71330595 182.34785974 -4.32045483 182.44877132 -6.63634682 180.9193573 C-8.71278895 177.99674148 -8.37783726 175.53230584 -8.38095093 171.9777832 C-8.3856309 171.25863141 -8.39031087 170.53947962 -8.39513266 169.79853535 C-8.40712391 167.38243118 -8.39760965 164.9668899 -8.38818359 162.55078125 C-8.39224747 160.82123482 -8.39758832 159.09169099 -8.40411377 157.3621521 C-8.41781507 152.65973446 -8.41247715 147.9575138 -8.40297651 143.25509262 C-8.39539447 138.33973398 -8.40242147 133.42439249 -8.40713501 128.5090332 C-8.41259681 120.2537126 -8.40538982 111.99847245 -8.39111328 103.74316406 C-8.37478596 94.19154952 -8.38007417 84.64012707 -8.3965925 75.08851719 C-8.41019528 66.89567956 -8.41213295 58.70289985 -8.40427649 50.51005459 C-8.39959332 45.61332995 -8.39899277 40.71669568 -8.40888596 35.81997681 C-8.41753579 31.21692514 -8.41157014 26.61412173 -8.39420319 22.01109695 C-8.39022771 20.31917356 -8.39139045 18.62722937 -8.39799118 16.93531418 C-8.40615515 14.63066386 -8.3959484 12.32681562 -8.38095093 10.0222168 C-8.37981985 8.73099411 -8.37868877 7.43977142 -8.37752342 6.10942078 C-8 3 -8 3 -6.63634682 1.0806427 C-4.32045483 -0.44877132 -2.71330595 -0.34785974 0 0 Z " fill="#F2F3F2" transform="translate(143,159)"/>
<path d="M0 0 C5.56818182 0.56818182 5.56818182 0.56818182 7 2 C7.1012403 4.08366571 7.13077771 6.17082104 7.13371277 8.25694275 C7.13597833 8.91792152 7.13824388 9.5789003 7.14057809 10.25990874 C7.14694513 12.49091684 7.14608701 14.72186463 7.14526367 16.95288086 C7.14825348 18.54582295 7.15165559 20.13876431 7.15544128 21.73170471 C7.1643036 26.07048824 7.16662033 30.40925207 7.16725707 34.74804378 C7.1682043 38.36406018 7.17188045 41.98007194 7.17542917 45.59608656 C7.18358219 54.12387453 7.18601263 62.65165194 7.18530273 71.17944336 C7.18470169 79.99027549 7.1952568 88.80104644 7.2110464 97.61186308 C7.22410096 105.16429653 7.22948751 112.71670995 7.22884732 120.26915461 C7.22859172 124.78524679 7.23147689 129.30128465 7.24202538 133.81736565 C7.25167143 138.06329282 7.25180971 142.30911335 7.24450874 146.55504417 C7.24345853 148.11677454 7.24585145 149.67851143 7.2518692 151.24023056 C7.25953094 153.36563903 7.25498351 155.49067379 7.24723816 157.61607361 C7.24778293 158.80757491 7.24832769 159.99907621 7.24888897 161.22668362 C7 164 7 164 5 166 C2 166.25 2 166.25 -1 166 C-3 164 -3 164 -3.24888897 161.46322918 C-3.2483442 160.38318017 -3.24779943 159.30313116 -3.24723816 158.19035339 C-3.25143265 156.95268219 -3.25562714 155.71501099 -3.25994873 154.43983459 C-3.25446448 153.06039351 -3.24878147 151.6809532 -3.24291992 150.30151367 C-3.24399249 148.8543489 -3.24593078 147.40718455 -3.24867249 145.96002197 C-3.25353287 142.01926844 -3.24584658 138.07862763 -3.23571944 134.13788772 C-3.22693983 130.00796749 -3.2286965 125.87805082 -3.2290802 121.74812317 C-3.22814232 114.79991777 -3.21944841 107.85175592 -3.20581055 100.90356445 C-3.19015168 92.89671734 -3.18481008 84.88991815 -3.1855461 76.88305682 C-3.18622513 68.33995237 -3.17925624 59.79686616 -3.1700995 51.25376725 C-3.16797919 48.80502835 -3.16725978 46.35629245 -3.16686058 43.90755272 C-3.16584578 40.03422711 -3.15965788 36.16094076 -3.14969444 32.28762817 C-3.14680584 30.87565159 -3.14553655 29.46367048 -3.14612198 28.05169106 C-3.15101117 9.05721303 -3.15101117 9.05721303 -2 2 C-1.34 1.34 -0.68 0.68 0 0 Z " fill="#F2F6F4" transform="translate(333,167)"/>
<path d="M0 0 C2.375 0.6875 2.375 0.6875 3.375 1.6875 C3.47421401 3.90011808 3.50132413 6.11596929 3.50198364 8.33081055 C3.50354363 9.03333041 3.50510362 9.73585028 3.50671089 10.45965862 C3.5107232 12.83119954 3.50753036 15.20267727 3.50439453 17.57421875 C3.50574847 19.26730385 3.50752836 20.96038866 3.50970459 22.6534729 C3.51427981 27.26491131 3.512489 31.87632745 3.5093255 36.48776627 C3.50680236 41.30263583 3.50913931 46.11750342 3.51071167 50.93237305 C3.5125335 59.01969751 3.51012671 67.10701286 3.50537109 75.19433594 C3.49992845 84.5584381 3.5016911 93.9225185 3.5071975 103.28662014 C3.51172825 111.31121985 3.51237936 119.33581298 3.50975883 127.36041355 C3.50819585 132.15982482 3.50800287 136.95922585 3.51129532 141.75863647 C3.51417349 146.26964721 3.51219935 150.78062975 3.50640106 155.29163742 C3.50507317 156.95215177 3.50546807 158.61266848 3.50766373 160.27318192 C3.5103741 162.53021702 3.50699552 164.78716029 3.50198364 167.04418945 C3.50160662 168.31035599 3.50122959 169.57652252 3.50084114 170.88105774 C3.375 173.6875 3.375 173.6875 2.375 174.6875 C-1.125 174.8125 -1.125 174.8125 -4.625 174.6875 C-6.50772823 172.80477177 -5.75955391 169.55457059 -5.76544189 167.05091858 C-5.76841302 166.34910428 -5.77138414 165.64728998 -5.7744453 164.92420858 C-5.78316857 162.55501069 -5.78464358 160.18586311 -5.78613281 157.81665039 C-5.79075838 156.12518708 -5.79578268 154.43372482 -5.80117798 152.74226379 C-5.81432812 148.13489805 -5.82075187 143.52754689 -5.82518864 138.9201653 C-5.8281148 136.04517306 -5.8322187 133.17018485 -5.83669281 130.29519463 C-5.85037385 121.31011951 -5.86003786 112.32505355 -5.8638947 103.33996874 C-5.86837886 92.94899832 -5.8859408 82.55815923 -5.9148953 72.16722876 C-5.9364704 64.14770804 -5.94659672 56.12822439 -5.94793582 48.10867494 C-5.94898674 43.31309657 -5.95495519 38.51764154 -5.97275543 33.72209358 C-5.9891645 29.21348651 -5.99142677 24.70509644 -5.98261642 20.19647026 C-5.98184222 18.53798214 -5.98623886 16.87948269 -5.99607468 15.22102356 C-6.008679 12.96410773 -6.00298137 10.70797399 -5.99249268 8.45106506 C-5.99395924 7.18582032 -5.9954258 5.92057558 -5.9969368 4.61699009 C-5.87419765 3.65025836 -5.75145851 2.68352663 -5.625 1.6875 C-2.625 -0.3125 -2.625 -0.3125 0 0 Z " fill="#F9F8F5" transform="translate(409.625,162.3125)"/>
<path d="M0 0 C2.4375 0.75 2.4375 0.75 4.4375 2.75 C4.69197559 5.17414761 4.69197559 5.17414761 4.69819641 8.28526306 C4.70528122 9.46165848 4.71236603 10.63805389 4.71966553 11.85009766 C4.71718811 13.14729736 4.71471069 14.44449707 4.7121582 15.78100586 C4.71650359 17.15572894 4.72168615 18.5304496 4.72764587 19.90516663 C4.74106622 23.64482695 4.74161117 27.3843864 4.73908257 31.12406611 C4.73801487 34.24297897 4.7428911 37.36187125 4.747688 40.48077971 C4.75879377 47.83738108 4.75921465 55.1939314 4.75317383 62.55053711 C4.74713257 70.14638527 4.75944638 77.74204826 4.7807439 85.33786482 C4.79834251 91.85340907 4.804364 98.3688943 4.80110615 104.88446146 C4.79929029 108.7785292 4.80195941 112.67246487 4.81582069 116.56651115 C4.8283662 120.22812592 4.82648638 123.88945147 4.81340981 127.55106163 C4.80990398 129.53883996 4.82124621 131.52662698 4.83297729 133.51437378 C4.82596298 134.69358902 4.81894867 135.87280426 4.8117218 137.0877533 C4.81188954 138.11479842 4.81205729 139.14184355 4.81223011 140.20001125 C4.4375 142.75 4.4375 142.75 3.11332989 144.59217167 C0.60540143 146.32489564 -1.60205963 145.94736269 -4.5625 145.75 C-5.88774191 143.09951618 -5.69447098 141.10140822 -5.70294189 138.13208008 C-5.70865204 136.93741119 -5.71436218 135.74274231 -5.72024536 134.51187134 C-5.72136322 133.19439911 -5.72248108 131.87692688 -5.72363281 130.51953125 C-5.72826007 129.12348295 -5.7332846 127.72743593 -5.73867798 126.33139038 C-5.7518102 122.53397546 -5.75824816 118.73657822 -5.76268864 114.93914413 C-5.76561715 112.56885285 -5.76972146 110.19856643 -5.77419281 107.82827759 C-5.78786795 100.41831706 -5.79753535 93.00836762 -5.8013947 85.59839535 C-5.80588008 77.03272924 -5.82345003 68.46722233 -5.8523953 59.90160465 C-5.87397341 53.28757173 -5.88409685 46.67358373 -5.88543582 40.05951595 C-5.88648635 36.10566532 -5.89244674 32.15196434 -5.91025543 28.19815063 C-5.92667017 24.48156494 -5.92892411 20.76524248 -5.92011642 17.04863358 C-5.91897248 15.02844591 -5.93273946 13.00826724 -5.9468689 10.98812866 C-5.94129974 9.79345978 -5.93573059 8.59879089 -5.92999268 7.36791992 C-5.93145924 6.32520432 -5.9329258 5.28248871 -5.9344368 4.20817566 C-5.81169765 3.39697769 -5.68895851 2.58577972 -5.5625 1.75 C-2.5625 -0.25 -2.5625 -0.25 0 0 Z " fill="#F1F1EE" transform="translate(360.5625,177.25)"/>
<path d="M0 0 C2.4375 0.8125 2.4375 0.8125 4.4375 2.8125 C4.68918228 5.14573669 4.68918228 5.14573669 4.69146729 8.12670898 C4.69992676 9.81774246 4.69992676 9.81774246 4.70855713 11.54293823 C4.70450867 12.78560455 4.70046021 14.02827087 4.69628906 15.30859375 C4.6997937 16.61265167 4.70329834 17.91670959 4.70690918 19.26028442 C4.71604644 22.84286825 4.71248348 26.42533722 4.70615101 30.00792313 C4.7010979 33.75194871 4.70578054 37.49596427 4.70892334 41.23999023 C4.712565 47.52817557 4.70775866 53.81631397 4.69824219 60.10449219 C4.68735723 67.38108932 4.69088267 74.6575744 4.701895 81.93416882 C4.71096219 88.17453822 4.71225595 94.41487383 4.70701766 100.65524769 C4.70389482 104.3854894 4.70349718 108.11567839 4.71009064 111.84591675 C4.71692461 116.00281443 4.70746065 120.15951801 4.69628906 124.31640625 C4.70033752 125.55907257 4.70438599 126.80173889 4.70855713 128.08206177 C4.70291748 129.20941742 4.69727783 130.33677307 4.69146729 131.49829102 C4.69071323 132.48201187 4.68995918 133.46573273 4.68918228 134.47926331 C4.4375 136.8125 4.4375 136.8125 2.4375 138.8125 C-0.5625 139.0625 -0.5625 139.0625 -3.5625 138.8125 C-6.16734459 136.20765541 -5.81561425 135.13354347 -5.82319641 131.50502014 C-5.83028122 130.37910965 -5.83736603 129.25319916 -5.84466553 128.09317017 C-5.84218811 126.85207489 -5.83971069 125.61097961 -5.8371582 124.33227539 C-5.84226913 123.02982376 -5.84738007 121.72737213 -5.85264587 120.38545227 C-5.86606489 116.80694261 -5.86661132 113.22853837 -5.86408257 109.65000844 C-5.86301477 106.66530294 -5.86789135 103.68061893 -5.872688 100.69591802 C-5.88379332 93.65574223 -5.88421491 86.61561978 -5.87817383 79.57543945 C-5.87213269 72.30677749 -5.88444615 65.03830903 -5.9057439 57.76968008 C-5.92334371 51.53438774 -5.92936381 45.29915708 -5.92610615 39.06384081 C-5.92429047 35.33744483 -5.92695759 31.61118686 -5.94082069 27.88481331 C-5.95569689 23.73045357 -5.94644317 19.57648916 -5.93481445 15.42211914 C-5.94628006 13.56351257 -5.94628006 13.56351257 -5.95797729 11.6673584 C-5.95096298 10.53862808 -5.94394867 9.40989777 -5.9367218 8.2469635 C-5.93688954 7.26416444 -5.93705729 6.28136538 -5.93723011 5.26878452 C-5.5625 2.8125 -5.5625 2.8125 -4.19926739 0.96112728 C-2.5625 -0.1875 -2.5625 -0.1875 0 0 Z " fill="#F6F7F5" transform="translate(189.5625,180.1875)"/>
<path d="M0 0 C2.5 0.25 2.5 0.25 4.5 2.25 C4.75168228 4.80187988 4.75168228 4.80187988 4.75396729 8.09570312 C4.76242676 9.96343384 4.76242676 9.96343384 4.77105713 11.86889648 C4.76716817 13.25634823 4.76307181 14.64379941 4.75878906 16.03125 C4.76149788 17.48641129 4.7650582 18.94157121 4.76940918 20.39672852 C4.77854848 24.35532983 4.77498262 28.31382722 4.76865101 32.27243042 C4.76359896 36.40883674 4.76828024 40.54523397 4.77142334 44.68164062 C4.77506531 51.62892256 4.77025784 58.57616201 4.76074219 65.5234375 C4.74985718 73.56347304 4.7533826 81.60340716 4.764395 89.64344025 C4.77346131 96.53773112 4.77475638 103.43199141 4.76951766 110.32628632 C4.76639433 114.44776574 4.76599851 118.56919744 4.77259064 122.69067383 C4.77835396 126.56481694 4.77438593 130.43882887 4.76280212 134.31295776 C4.76015008 135.73761782 4.76092986 137.16228885 4.76532745 138.58694458 C4.77076269 140.52605809 4.76275001 142.46519564 4.75396729 144.40429688 C4.75321323 145.49125854 4.75245918 146.57822021 4.75168228 147.69812012 C4.5 150.25 4.5 150.25 2.5 152.25 C0 152.5 0 152.5 -2.5 152.25 C-5.19893451 149.55106549 -4.7513478 148.18027048 -4.75396729 144.40429688 C-4.75960693 143.15914307 -4.76524658 141.91398926 -4.77105713 140.63110352 C-4.76716817 139.24365177 -4.76307181 137.85620059 -4.75878906 136.46875 C-4.76149788 135.01358871 -4.7650582 133.55842879 -4.76940918 132.10327148 C-4.77854848 128.14467017 -4.77498262 124.18617278 -4.76865101 120.22756958 C-4.76359896 116.09116326 -4.76828024 111.95476603 -4.77142334 107.81835938 C-4.77506531 100.87107744 -4.77025784 93.92383799 -4.76074219 86.9765625 C-4.74985718 78.93652696 -4.7533826 70.89659284 -4.764395 62.85655975 C-4.77346131 55.96226888 -4.77475638 49.06800859 -4.76951766 42.17371368 C-4.76639433 38.05223426 -4.76599851 33.93080256 -4.77259064 29.80932617 C-4.77835396 25.93518306 -4.77438593 22.06117113 -4.76280212 18.18704224 C-4.76015008 16.76238218 -4.76092986 15.33771115 -4.76532745 13.91305542 C-4.77076269 11.97394191 -4.76275001 10.03480436 -4.75396729 8.09570312 C-4.75321323 7.00874146 -4.75245918 5.92177979 -4.75168228 4.80187988 C-4.40431112 1.27978256 -3.53095038 0.35309504 0 0 Z " fill="#F9F8F5" transform="translate(164.5,173.75)"/>
<path d="M0 0 C2.4375 0.8125 2.4375 0.8125 4.4375 2.8125 C4.68918228 5.05203247 4.68918228 5.05203247 4.69146729 7.89892578 C4.69992676 9.51423187 4.69992676 9.51423187 4.70855713 11.16217041 C4.70450867 12.3487323 4.70046021 13.53529419 4.69628906 14.7578125 C4.6997937 16.003349 4.70329834 17.2488855 4.70690918 18.53216553 C4.71421857 21.95364463 4.71248396 25.37488281 4.70615101 28.79634857 C4.70109738 32.37221101 4.70578068 35.94806295 4.70892334 39.52392578 C4.71256485 45.52964126 4.70775906 51.5353076 4.69824219 57.54101562 C4.68735726 64.49042512 4.69088271 71.43971727 4.701895 78.38912392 C4.71096263 84.34924132 4.71225573 90.30932335 4.70701766 96.26944542 C4.70389506 99.83201395 4.70349652 103.39452727 4.71009064 106.95709229 C4.71692536 110.92717065 4.70745988 114.89711693 4.69628906 118.8671875 C4.70033752 120.05374939 4.70438599 121.24031128 4.70855713 122.46282959 C4.70291748 123.53970032 4.69727783 124.61657104 4.69146729 125.72607422 C4.69071323 126.66554901 4.68995918 127.6050238 4.68918228 128.57296753 C4.4375 130.8125 4.4375 130.8125 2.4375 132.8125 C-0.5625 133.0625 -0.5625 133.0625 -3.5625 132.8125 C-6.12696082 130.24803918 -5.81540214 129.29484178 -5.82319641 125.73280334 C-5.83028122 124.65737778 -5.83736603 123.58195221 -5.84466553 122.47393799 C-5.84218811 121.28894714 -5.83971069 120.1039563 -5.8371582 118.88305664 C-5.84226913 117.63912643 -5.84738007 116.39519623 -5.85264587 115.11357117 C-5.86418895 111.696162 -5.86661151 108.27899486 -5.86408257 104.86158299 C-5.86301467 102.01108481 -5.86789162 99.16060913 -5.872688 96.31011575 C-5.88379283 89.58636547 -5.8842152 82.86267104 -5.87817383 76.13891602 C-5.87213282 69.19743993 -5.8844459 62.25616649 -5.9057439 55.31472498 C-5.92334502 49.35968451 -5.9293636 43.40470861 -5.92610615 37.44964308 C-5.92429067 33.89091864 -5.9269556 30.33233872 -5.94082069 26.77363777 C-5.95569938 22.8061232 -5.94644191 18.83886775 -5.93481445 14.87133789 C-5.94245819 13.68837128 -5.95010193 12.50540466 -5.95797729 11.28659058 C-5.95096298 10.20834518 -5.94394867 9.13009979 -5.9367218 8.0191803 C-5.93688954 7.0806273 -5.93705729 6.1420743 -5.93723011 5.1750803 C-5.5625 2.8125 -5.5625 2.8125 -4.19926739 0.97536373 C-2.5625 -0.1875 -2.5625 -0.1875 0 0 Z " fill="#F6F7F5" transform="translate(311.5625,183.1875)"/>
<path d="M0 0 C3 -0.3125 3 -0.3125 6 0 C8.45461445 2.45461445 8.25227093 3.10742783 8.26069641 6.47900391 C8.26778122 7.42124817 8.27486603 8.36349243 8.28216553 9.33428955 C8.27968811 10.37123962 8.27721069 11.4081897 8.2746582 12.4765625 C8.27976913 13.56604187 8.28488007 14.65552124 8.29014587 15.77801514 C8.30409182 19.39373201 8.30308148 23.00925937 8.30078125 26.625 C8.30466514 29.1284187 8.30899916 31.63183673 8.31376648 34.13525391 C8.32123925 39.38771183 8.32106705 44.64012033 8.31567383 49.89257812 C8.30963013 55.96953263 8.32195318 62.04625582 8.3432439 68.12317085 C8.36295519 73.96338077 8.36603718 79.8034997 8.36250877 85.64373779 C8.36302386 88.13173974 8.36829642 90.61974524 8.37832069 93.10772705 C8.39059321 96.57981434 8.38394881 100.05135954 8.37231445 103.5234375 C8.37995819 104.56038757 8.38760193 105.59733765 8.39547729 106.66571045 C8.38846298 107.60795471 8.38144867 108.55019897 8.3742218 109.52099609 C8.37438954 110.34248138 8.37455729 111.16396667 8.37473011 112.01034546 C8.25106917 112.66693146 8.12740824 113.32351746 8 114 C5 116 5 116 1.875 115.75 C0.451875 115.37875 0.451875 115.37875 -1 115 C-2.17914398 112.64171205 -2.12824116 111.23339633 -2.13371277 108.60365295 C-2.13797775 107.67968216 -2.14224274 106.75571136 -2.14663696 105.80374146 C-2.14618378 104.7870639 -2.14573059 103.77038635 -2.14526367 102.72290039 C-2.14862228 101.65453445 -2.1519809 100.58616852 -2.15544128 99.48542786 C-2.16497183 95.93949229 -2.16689541 92.39360384 -2.16796875 88.84765625 C-2.17117973 86.3914742 -2.17454367 83.93529235 -2.17805481 81.47911072 C-2.18405125 76.32501787 -2.18589417 71.1709418 -2.18530273 66.0168457 C-2.18520105 59.40099524 -2.19885746 52.78525196 -2.21607494 46.16942692 C-2.22717368 41.09520469 -2.2292226 36.02100856 -2.22869301 30.94677544 C-2.22987618 28.50705025 -2.23431669 26.06732445 -2.24202538 23.62761116 C-2.25178292 20.22049498 -2.24896401 16.81361382 -2.24291992 13.40649414 C-2.24853943 12.39184082 -2.25415894 11.3771875 -2.25994873 10.33178711 C-2.25575424 9.40499649 -2.25155975 8.47820587 -2.24723816 7.52333069 C-2.24778293 6.71751588 -2.24832769 5.91170107 -2.24888897 5.08146763 C-2 3 -2 3 0 0 Z " fill="#F3F2F0" transform="translate(381,192)"/>
<path d="M0 0 C0.99 0.103125 1.98 0.20625 3 0.3125 C5.03354672 3.36282008 5.25036063 3.94877022 5.25396729 7.37353516 C5.26242676 8.61009857 5.26242676 8.61009857 5.27105713 9.87164307 C5.26700867 10.77251648 5.26296021 11.67338989 5.25878906 12.6015625 C5.2622937 13.55303162 5.26579834 14.50450073 5.26940918 15.48480225 C5.27822513 18.63577531 5.27237777 21.78652458 5.265625 24.9375 C5.26697169 27.12321008 5.26891225 29.30891986 5.27142334 31.49462891 C5.27437442 36.07782846 5.27007743 40.66095012 5.26074219 45.24414062 C5.24934771 51.12572429 5.25590726 57.00712543 5.26788712 62.88870239 C5.27510611 67.4027647 5.27281759 71.91678357 5.26763153 76.43084717 C5.26629515 78.59983339 5.26794235 80.76882352 5.27259064 82.93780518 C5.27765647 85.96645591 5.2699447 88.99480899 5.25878906 92.0234375 C5.26283752 92.92431091 5.26688599 93.82518433 5.27105713 94.75335693 C5.26541748 95.57773254 5.25977783 96.40210815 5.25396729 97.25146484 C5.25321323 97.96748871 5.25245918 98.68351257 5.25168228 99.42123413 C5 101.3125 5 101.3125 3 104.3125 C0 104.625 0 104.625 -3 104.3125 C-5.36804493 101.94445507 -5.25066389 101.50020357 -5.25396729 98.2890625 C-5.25960693 97.44778809 -5.26524658 96.60651367 -5.27105713 95.73974609 C-5.26700867 94.81500488 -5.26296021 93.89026367 -5.25878906 92.9375 C-5.2622937 91.96506348 -5.26579834 90.99262695 -5.26940918 89.99072266 C-5.27823802 86.7645766 -5.27237324 83.53864843 -5.265625 80.3125 C-5.26697132 78.07812457 -5.26891157 75.84374942 -5.27142334 73.609375 C-5.27437617 68.92184669 -5.27007184 64.23439448 -5.26074219 59.546875 C-5.24934761 53.52728212 -5.25590623 47.50786758 -5.26788712 41.48828125 C-5.27510142 36.87303312 -5.27281976 32.25782751 -5.26763153 27.64257812 C-5.26629384 25.42252583 -5.26794689 23.20246972 -5.27259064 20.98242188 C-5.27764879 17.88400996 -5.26995559 14.78589007 -5.25878906 11.6875 C-5.26283752 10.76275879 -5.26688599 9.83801758 -5.27105713 8.88525391 C-5.26541748 8.04397949 -5.25977783 7.20270508 -5.25396729 6.3359375 C-5.25321323 5.60294434 -5.25245918 4.86995117 -5.25168228 4.11474609 C-4.77419434 0.69555115 -3.20920074 0.33429174 0 0 Z " fill="#F3F2EF" transform="translate(116,197.6875)"/>
<path d="M0 0 C3 -0.3125 3 -0.3125 6 0 C8.58389279 2.58389279 8.2487763 4.34182654 8.28216553 7.86357117 C8.27968811 8.68388321 8.27721069 9.50419525 8.2746582 10.34936523 C8.27976913 11.21290619 8.28488007 12.07644714 8.29014587 12.96615601 C8.30408459 15.83037176 8.30308188 18.69434804 8.30078125 21.55859375 C8.30466588 23.54395132 8.30900006 25.52930805 8.31376648 27.5146637 C8.32123794 31.68013195 8.32093076 35.84551547 8.31567383 40.01098633 C8.30987849 45.35570983 8.32680732 50.70008688 8.3500185 56.04475307 C8.36473244 60.14620501 8.36563073 64.24757306 8.36250877 68.34904671 C8.36302318 70.31987253 8.36828322 72.2907029 8.37832069 74.26150322 C8.3906223 77.01497951 8.3839313 79.76777528 8.37231445 82.52124023 C8.37995819 83.33952805 8.38760193 84.15781586 8.39547729 85.00090027 C8.34359899 90.54863847 8.34359899 90.54863847 6.67192364 92.74459934 C5 94 5 94 1.875 93.8125 C0.92625 93.544375 -0.0225 93.27625 -1 93 C-2.60829509 89.78340982 -2.14723831 86.27598313 -2.14526367 82.74243164 C-2.14862228 81.88864426 -2.1519809 81.03485687 -2.15544128 80.15519714 C-2.1649661 77.32350218 -2.16689513 74.49186625 -2.16796875 71.66015625 C-2.17118015 69.6972196 -2.17454413 67.73428319 -2.17805481 65.77134705 C-2.18404983 61.65297897 -2.18589432 57.5346319 -2.18530273 53.41625977 C-2.18520106 48.13214966 -2.19885666 42.84817377 -2.21607494 37.5640955 C-2.22717856 33.5089811 -2.22922245 29.45389933 -2.22869301 25.39877129 C-2.22987547 23.45027643 -2.23431208 21.5017808 -2.24202538 19.55330086 C-2.25179271 16.8310918 -2.24896021 14.1091764 -2.24291992 11.38696289 C-2.24853943 10.57802582 -2.25415894 9.76908875 -2.25994873 8.93563843 C-2.2382091 5.0915858 -2.18371011 3.27556517 0 0 Z " fill="#F5F4F1" transform="translate(64,203)"/>
<path d="M0 0 C2.4375 0.8125 2.4375 0.8125 4.4375 2.8125 C4.635896 5.42173405 4.71025976 7.92482527 4.69628906 10.53515625 C4.6997937 11.3320285 4.70329834 12.12890076 4.70690918 12.94992065 C4.71573278 15.59170162 4.70987518 18.23321617 4.703125 20.875 C4.70447147 22.70581107 4.70641185 24.5366218 4.70892334 26.36743164 C4.71187545 30.2075541 4.70757417 34.04758363 4.69824219 37.88769531 C4.6868476 42.81768694 4.6934066 47.74746083 4.70538712 52.67744446 C4.71260337 56.45887909 4.71031887 60.24026183 4.70513153 64.021698 C4.70379438 65.83983384 4.70544502 67.65797434 4.71009064 69.47610474 C4.71515204 72.01414526 4.70745123 74.55182984 4.69628906 77.08984375 C4.70033752 77.84627167 4.70438599 78.60269958 4.70855713 79.38204956 C4.66602861 84.58397139 4.66602861 84.58397139 2.4375 86.8125 C-0.5625 87.0625 -0.5625 87.0625 -3.5625 86.8125 C-6.0630562 84.3119438 -5.80954136 82.80589389 -5.84466553 79.39315796 C-5.84218811 78.63830109 -5.83971069 77.88344421 -5.8371582 77.10571289 C-5.84226913 76.31044693 -5.84738007 75.51518097 -5.85264587 74.69581604 C-5.86658109 72.05885354 -5.86558215 69.42215126 -5.86328125 66.78515625 C-5.8671661 64.95674034 -5.87150032 63.12832533 -5.87626648 61.2999115 C-5.88373719 57.46399004 -5.88343132 53.62816061 -5.87817383 49.79223633 C-5.8723788 44.87124034 -5.88930681 39.95062068 -5.9125185 35.02968693 C-5.92723519 31.25249521 -5.92813036 27.47539455 -5.92500877 23.69817924 C-5.92552305 21.88365369 -5.93078069 20.06912317 -5.94082069 18.25462532 C-5.95312764 15.71906055 -5.94642831 13.18423418 -5.93481445 10.64868164 C-5.94245819 9.895849 -5.95010193 9.14301636 -5.95797729 8.36737061 C-5.92771634 5.38543961 -5.90643223 3.31750091 -4.1993866 0.8110199 C-2.5625 -0.1875 -2.5625 -0.1875 0 0 Z " fill="#F5F4F1" transform="translate(433.5625,206.1875)"/>
<path d="M0 0 C2.875 -0.125 2.875 -0.125 6 0 C8.59949669 2.59949669 8.24467902 4.39683225 8.27105713 7.93814087 C8.26700867 8.76937469 8.26296021 9.60060852 8.25878906 10.45703125 C8.2622937 11.33193207 8.26579834 12.20683289 8.26940918 13.10824585 C8.27823537 16.00974383 8.27237422 18.91099939 8.265625 21.8125 C8.2669714 23.822673 8.26891171 25.83284569 8.27142334 27.84301758 C8.27437581 32.05976455 8.27007302 36.27642691 8.26074219 40.49316406 C8.2493476 45.90742223 8.25590642 51.32148214 8.26788712 56.73573303 C8.2751024 60.88775129 8.27281931 65.03972229 8.26763153 69.19174194 C8.26629412 71.18850732 8.26794594 73.18527693 8.27259064 75.18203735 C8.27765043 77.9691307 8.26995338 80.75589966 8.25878906 83.54296875 C8.26283752 84.37420258 8.26688599 85.2054364 8.27105713 86.06185913 C8.22852799 91.77147201 8.22852799 91.77147201 6 94 C3.5 94.25 3.5 94.25 1 94 C-1.60107002 91.39892998 -1.24032153 89.60469856 -1.25994873 86.06185913 C-1.25432922 85.23062531 -1.24870972 84.39939148 -1.24291992 83.54296875 C-1.24481827 82.66806793 -1.24671661 81.79316711 -1.24867249 80.89175415 C-1.25238712 77.99024589 -1.24166627 75.08898614 -1.23046875 72.1875 C-1.22927722 70.17732777 -1.22882373 68.16715498 -1.2290802 66.15698242 C-1.22751414 61.94023157 -1.21921518 57.72356547 -1.20581055 53.50683594 C-1.18882055 48.09262305 -1.18499614 42.67850339 -1.18575573 37.26426697 C-1.18548423 33.11225489 -1.18000619 28.96026333 -1.17275429 24.80825806 C-1.16956458 22.8114945 -1.16759951 20.81472861 -1.16686058 18.81796265 C-1.16470022 16.03094495 -1.15596253 13.24402752 -1.14526367 10.45703125 C-1.14571686 9.62579742 -1.14617004 8.7945636 -1.14663696 7.93814087 C-1.1144767 2.2289534 -1.1144767 2.2289534 0 0 Z " fill="#F9F8F5" transform="translate(210,203)"/>
<path d="M0 0 C2.875 0.75 2.875 0.75 3.875 1.75 C3.98596458 4.23403212 4.0323856 6.69052712 4.03613281 9.17553711 C4.04109772 9.9527562 4.04606262 10.72997528 4.05117798 11.53074646 C4.06583516 14.11295441 4.07260711 16.69510096 4.078125 19.27734375 C4.08387307 21.06474307 4.08963084 22.85214236 4.09539795 24.63954163 C4.10591776 28.39145191 4.11175415 32.1433407 4.11523438 35.89526367 C4.12072435 40.71211099 4.1447589 45.52867637 4.17320633 50.34543514 C4.19179276 54.03850648 4.19703614 57.73150932 4.19857025 61.42462349 C4.20160585 63.20090847 4.20966469 64.97719199 4.22275543 66.75343132 C4.2397347 69.23419783 4.23795605 71.71426798 4.23144531 74.19506836 C4.2406601 74.93436584 4.24987488 75.67366333 4.2593689 76.43536377 C4.24249268 78.47911072 4.24249268 78.47911072 3.875 81.75 C0.875 83.75 0.875 83.75 -1.6875 83.5 C-4.125 82.75 -4.125 82.75 -6.125 80.75 C-6.32846348 78.2669596 -6.40823755 75.8949585 -6.3996582 73.41040039 C-6.40476913 72.65414871 -6.40988007 71.89789703 -6.41514587 71.11872864 C-6.42907881 68.61162465 -6.42808233 66.10479442 -6.42578125 63.59765625 C-6.42966624 61.85892128 -6.4340005 60.12018725 -6.43876648 58.38145447 C-6.44623671 54.73384528 -6.44593169 51.08633286 -6.44067383 47.4387207 C-6.434879 42.75985378 -6.45180648 38.08138268 -6.4750185 33.40258121 C-6.48973698 29.81068091 -6.49063011 26.21887633 -6.48750877 22.62695122 C-6.48802297 20.90174005 -6.49327904 19.17652365 -6.50332069 17.45134163 C-6.51563113 15.04029615 -6.50892636 12.63002681 -6.49731445 10.21899414 C-6.50495819 9.50356445 -6.51260193 8.78813477 -6.52047729 8.05102539 C-6.48972001 5.16776726 -6.42587379 3.19915859 -4.79704285 0.76756287 C-3.125 -0.25 -3.125 -0.25 0 0 Z " fill="#EDECE9" transform="translate(92.125,208.25)"/>
<path d="M0 0 C0.99 0.103125 1.98 0.20625 3 0.3125 C5.16206172 3.55559258 5.2519609 4.45105743 5.25878906 8.1953125 C5.26509338 9.18644043 5.27139771 10.17756836 5.27789307 11.19873047 C5.2738446 12.26752441 5.26979614 13.33631836 5.265625 14.4375 C5.26753845 15.53594238 5.2694519 16.63438477 5.27142334 17.76611328 C5.2727849 20.08952056 5.26909048 22.41293545 5.26074219 24.73632812 C5.2500425 28.29835045 5.26063869 31.85986841 5.2734375 35.421875 C5.2721159 37.67708445 5.2695535 39.93229358 5.265625 42.1875 C5.26967346 43.25629395 5.27372192 44.32508789 5.27789307 45.42626953 C5.27158875 46.41739746 5.26528442 47.40852539 5.25878906 48.4296875 C5.25640228 49.73848877 5.25640228 49.73848877 5.25396729 51.07373047 C5 53.3125 5 53.3125 3 56.3125 C0 56.625 0 56.625 -3 56.3125 C-5.54273722 53.76976278 -5.2526488 52.86810561 -5.25878906 49.34375 C-5.26509338 48.30927734 -5.27139771 47.27480469 -5.27789307 46.20898438 C-5.2738446 45.08814453 -5.26979614 43.96730469 -5.265625 42.8125 C-5.26753845 41.66587891 -5.2694519 40.51925781 -5.27142334 39.33789062 C-5.27278622 36.91015402 -5.26908267 34.48241016 -5.26074219 32.0546875 C-5.25004438 28.32795927 -5.26063431 24.60171314 -5.2734375 20.875 C-5.27211592 18.52083226 -5.26955357 16.16666483 -5.265625 13.8125 C-5.26967346 12.69166016 -5.27372192 11.57082031 -5.27789307 10.41601562 C-5.27158875 9.38154297 -5.26528442 8.34707031 -5.25878906 7.28125 C-5.25719788 6.36794922 -5.25560669 5.45464844 -5.25396729 4.51367188 C-4.83247064 0.86049839 -3.52250282 0.36692738 0 0 Z " fill="#F3F5F4" transform="translate(238,221.6875)"/>
<path d="M0 0 C3 -0.3125 3 -0.3125 6 0 C8.50944305 2.50944305 8.2525033 3.31764087 8.25878906 6.78515625 C8.26509338 7.7795874 8.27139771 8.77401855 8.27789307 9.79858398 C8.2738446 10.87567627 8.26979614 11.95276855 8.265625 13.0625 C8.26753845 14.164729 8.2694519 15.26695801 8.27142334 16.40258789 C8.27278612 18.73616768 8.26908322 21.06975503 8.26074219 23.40332031 C8.25004421 26.98519847 8.26063458 30.56657503 8.2734375 34.1484375 C8.27211592 36.41145945 8.26955357 38.67448108 8.265625 40.9375 C8.26967346 42.01459229 8.27372192 43.09168457 8.27789307 44.20141602 C8.27158875 45.19584717 8.26528442 46.19027832 8.25878906 47.21484375 C8.25640228 48.53150024 8.25640228 48.53150024 8.25396729 49.87475586 C8 52 8 52 6 54 C2.4375 53.75 2.4375 53.75 -1 53 C-2.19954489 50.60091023 -2.13309714 49.09295193 -2.14526367 46.41430664 C-2.15164352 45.46314468 -2.15802338 44.51198273 -2.16459656 43.53199768 C-2.16626579 41.98668617 -2.16626579 41.98668617 -2.16796875 40.41015625 C-2.17129715 39.35469101 -2.17462555 38.29922577 -2.17805481 37.21177673 C-2.18312399 34.97655677 -2.18546314 32.74132922 -2.18530273 30.50610352 C-2.18748876 27.0801145 -2.20564347 23.6544476 -2.22460938 20.22851562 C-2.22754334 18.05989694 -2.22952811 15.89127672 -2.23046875 13.72265625 C-2.24124702 12.18038109 -2.24124702 12.18038109 -2.25224304 10.60694885 C-2.24916641 9.65263474 -2.24608978 8.69832062 -2.24291992 7.71508789 C-2.24434494 6.87506729 -2.24576996 6.03504669 -2.24723816 5.16957092 C-2 3 -2 3 0 0 Z " fill="#F0EFEC" transform="translate(454,223)"/>
<path d="M0 0 C2.4375 0.75 2.4375 0.75 4.4375 2.75 C4.6370697 5.30750453 4.71736826 7.75438141 4.703125 10.3125 C4.70503845 11.05959229 4.7069519 11.80668457 4.70892334 12.57641602 C4.71028498 14.15674171 4.70659 15.73707858 4.69824219 17.31738281 C4.687542 19.74048922 4.69813779 22.16285423 4.7109375 24.5859375 C4.7096159 26.11979331 4.7070535 27.65364865 4.703125 29.1875 C4.70717346 29.91461182 4.71122192 30.64172363 4.71539307 31.39086914 C4.66742361 36.52007639 4.66742361 36.52007639 2.4375 38.75 C-1.125 38.9375 -1.125 38.9375 -4.5625 38.75 C-6.58384951 36.72865049 -5.75043109 32.62203886 -5.765625 29.84765625 C-5.77132507 29.05475693 -5.77702515 28.2618576 -5.78289795 27.44493103 C-5.79236098 25.76448914 -5.79888709 24.08402858 -5.80273438 22.40356445 C-5.81244664 19.82665823 -5.8434594 17.25054715 -5.875 14.67382812 C-5.88152907 13.04427559 -5.88677992 11.41471733 -5.890625 9.78515625 C-5.9029718 9.01115982 -5.9153186 8.23716339 -5.92803955 7.43971252 C-5.91894531 5.26586914 -5.91894531 5.26586914 -5.5625 1.75 C-2.5625 -0.25 -2.5625 -0.25 0 0 Z " fill="#EEF4F3" transform="translate(287.5625,230.25)"/>
<path d="M0 0 C2.4375 0.8125 2.4375 0.8125 4.4375 2.8125 C4.6370697 5.37000453 4.71736826 7.81688141 4.703125 10.375 C4.70503845 11.12209229 4.7069519 11.86918457 4.70892334 12.63891602 C4.71028498 14.21924171 4.70659 15.79957858 4.69824219 17.37988281 C4.687542 19.80298922 4.69813779 22.22535423 4.7109375 24.6484375 C4.7096159 26.18229331 4.7070535 27.71614865 4.703125 29.25 C4.70717346 29.97711182 4.71122192 30.70422363 4.71539307 31.45336914 C4.66742361 36.58257639 4.66742361 36.58257639 2.4375 38.8125 C-0.5625 39.0625 -0.5625 39.0625 -3.5625 38.8125 C-6.04205781 36.33294219 -5.81792915 34.86532061 -5.86604309 31.47901917 C-5.86513168 30.7550444 -5.86422028 30.03106964 -5.86328125 29.28515625 C-5.86756638 28.54043564 -5.8718515 27.79571503 -5.87626648 27.02842712 C-5.88201282 25.45231137 -5.8825078 23.8761691 -5.87817383 22.30004883 C-5.87501665 19.88772308 -5.89845756 17.47662688 -5.92382812 15.06445312 C-5.92610137 13.53385572 -5.92680449 12.003255 -5.92578125 10.47265625 C-5.934991 9.75070572 -5.94420074 9.02875519 -5.95368958 8.28492737 C-5.92638833 5.33063298 -5.89645367 3.30035599 -4.19995117 0.82202148 C-2.5625 -0.1875 -2.5625 -0.1875 0 0 Z " fill="#F3F6F4" transform="translate(262.5625,230.1875)"/>
<path d="M0 0 C2.5625 0.3125 2.5625 0.3125 4.19775391 1.46484375 C6.12286353 4.07114601 5.95061083 5.96951437 5.9609375 9.1875 C5.96480469 10.33734375 5.96867187 11.4871875 5.97265625 12.671875 C5.96105469 13.87328125 5.94945312 15.0746875 5.9375 16.3125 C5.94910156 17.51390625 5.96070313 18.7153125 5.97265625 19.953125 C5.96878906 21.10296875 5.96492188 22.2528125 5.9609375 23.4375 C5.95755371 24.49195313 5.95416992 25.54640625 5.95068359 26.6328125 C5.5625 29.3125 5.5625 29.3125 4.19775391 31.16015625 C1.89203389 32.7849694 0.31586972 32.66549612 -2.4375 32.3125 C-5.19694605 29.55305395 -4.69555677 27.92013302 -4.703125 24.0625 C-4.70570312 22.8146875 -4.70828125 21.566875 -4.7109375 20.28125 C-4.70320313 18.9715625 -4.69546875 17.661875 -4.6875 16.3125 C-4.69523437 15.0028125 -4.70296875 13.693125 -4.7109375 12.34375 C-4.70835938 11.0959375 -4.70578125 9.848125 -4.703125 8.5625 C-4.70086914 7.41265625 -4.69861328 6.2628125 -4.69628906 5.078125 C-4.35971588 1.48123722 -3.62508086 0.46475396 0 0 Z " fill="#EEEEEB" transform="translate(42.4375,233.6875)"/>
</svg>
