<?xml version="1.0" encoding="UTF-8"?>
<svg version="1.1" xmlns="http://www.w3.org/2000/svg" width="1500" height="844">
<path d="M0 0 C495 0 990 0 1500 0 C1500 278.52 1500 557.04 1500 844 C1005 844 510 844 0 844 C0 565.48 0 286.96 0 0 Z " fill="#121212" transform="translate(0,0)"/>
<path d="M0 0 C13.44109405 7.72536668 19.04035756 23.02726608 23.05126953 37.22485352 C27.37876971 53.39332022 30.19980249 69.79316017 32.57421875 86.34375 C32.68113037 87.08437683 32.78804199 87.82500366 32.89819336 88.58807373 C34.051911 96.64821007 34.99470384 104.67398483 35.53858948 112.80224609 C35.81534618 116.05206382 36.24867341 119.23145183 36.74389648 122.45458984 C37.8518179 130.05656863 38.63362011 137.67135327 39.36441994 145.31762123 C39.60108074 147.78341092 39.8433985 150.24858784 40.08732605 152.71366882 C40.77984935 159.71298986 41.47003335 166.71248602 42.13891602 173.71411133 C44.06099563 193.78642057 46.21993303 213.48604352 50.82421875 233.15625 C51.14478745 234.55733505 51.14478745 234.55733505 51.47183228 235.98672485 C54.92830063 252.23503751 54.92830063 252.23503751 65.82421875 264.15625 C71.02723384 264.73436279 74.51259645 264.15563943 78.82421875 261.15625 C88.8690737 248.97978339 91.27305407 231.1982533 93.32421875 216.046875 C93.45288834 215.09808472 93.58155792 214.14929443 93.71412659 213.17175293 C94.99658613 203.37172297 95.78981298 193.54683255 96.53128052 183.693573 C102.66289382 102.87499575 102.66289382 102.87499575 117.484375 87.42578125 C120.47118493 84.99687203 123.02769861 83.83631698 126.88671875 83.59375 C133.87367867 84.59188713 137.25313878 88.28705693 141.33203125 93.66796875 C145.58749602 100.76412335 147.92241132 108.28732711 149.88671875 116.28125 C150.27404175 117.84407715 150.27404175 117.84407715 150.66918945 119.43847656 C153.03584457 129.37199328 154.34766439 139.32787268 155.49755859 149.46142578 C155.99996117 153.60605932 156.66619224 157.72151875 157.32421875 161.84375 C158.5669769 169.75845124 159.40932284 177.68488382 160.19921875 185.65625 C163.15081016 227.54289495 163.15081016 227.54289495 182.703125 262.84375 C186.5026614 265.19484435 190.51297723 264.77019262 194.82421875 264.15625 C203.2074272 259.96464577 206.61100541 252.55114268 209.82421875 244.15625 C213.53929433 231.56874341 215.62610944 218.63586207 217.82421875 205.71875 C221.57110816 183.74053589 221.57110816 183.74053589 223.89453125 173.66796875 C224.04575439 173.00052139 224.19697754 172.33307404 224.3527832 171.645401 C226.14314141 164.17306227 229.09808921 156.42953708 234.63671875 150.90625 C238.90911348 148.56062152 242.07074856 147.92954802 246.82421875 149.15625 C256.32745144 154.28003302 259.97259705 164.85617008 262.91748047 174.61987305 C265.36176543 183.2395867 267.22544665 191.95601602 268.9921875 200.734375 C269.18383987 201.68509888 269.37549225 202.63582275 269.57295227 203.61535645 C270.53734265 208.42065885 271.48316373 213.22867407 272.40161133 218.04296875 C276.38527687 242.4378481 276.38527687 242.4378481 288.734375 262.8515625 C291.99298981 264.88591268 295.15523212 264.75400625 298.82421875 264.15625 C306.06747759 261.20983962 308.9202033 256.41608118 312.04858398 249.41699219 C313.71368183 245.35492241 315.31698683 241.27106881 316.8984375 237.17578125 C320.63836816 227.83189099 325.41143073 217.86264401 334.82421875 213.15625 C340.77502335 212.59969993 345.81727427 212.59575615 350.82421875 216.15625 C359.40954238 223.64139485 363.77369084 235.15138209 365.82421875 246.15625 C366.07268555 247.37139282 366.07268555 247.37139282 366.32617188 248.61108398 C368.11618396 258.47348913 368.12846696 268.22533515 368.08496094 278.22167969 C368.07423943 281.15060119 368.0849091 284.07890954 368.09765625 287.0078125 C368.10970812 302.16657298 366.46894115 315.67159719 361.82421875 330.15625 C361.53804687 331.07664062 361.251875 331.99703125 360.95703125 332.9453125 C358.49611353 339.97961715 354.22719115 346.9477303 347.37890625 350.3828125 C341.93660546 352.03048155 336.75080166 352.04544211 331.57421875 349.65625 C322.68306457 341.57338256 318.58171821 330.64030796 313.96484375 319.8046875 C313.50549438 318.73347656 313.50549438 318.73347656 313.03686523 317.640625 C312.45268932 316.27168551 311.87620069 314.89943033 311.30883789 313.5234375 C309.12142436 308.36819305 306.79144546 304.45283124 302.07421875 301.34375 C297.81005812 299.78569131 295.35904275 299.58039933 290.82421875 300.15625 C280.99129135 307.53094555 277.59145565 321.96087834 274.94921875 333.34375 C274.6972876 334.40601807 274.44535645 335.46828613 274.18579102 336.56274414 C272.29650363 344.69810349 270.68494729 352.87734021 269.14035034 361.08322144 C260.80810513 405.32732933 260.80810513 405.32732933 248.70703125 414.25390625 C245.00928322 416.0260635 241.77272731 416.16437984 237.82421875 415.15625 C231.68979197 412.21172515 229.37558768 406.80300146 226.96484375 400.7421875 C224.1185626 391.79394744 222.2708212 382.6777006 220.73828125 373.42578125 C220.36098972 371.21804551 219.98337534 369.01036492 219.60546875 366.80273438 C219.02682173 363.39218687 218.45129426 359.98118608 217.88183594 356.5690918 C214.23903108 327.37413665 214.23903108 327.37413665 199.57421875 303.03125 C194.68132465 299.69518584 190.68503906 299.16798851 184.82421875 300.15625 C176.29876179 304.3890646 173.07899235 313.59569391 170.16503906 322.07421875 C162.82249687 344.69058168 161.02566401 369.41268539 158.51681519 392.95428467 C157.07675607 406.44065562 155.23653496 419.8050355 152.82421875 433.15625 C152.6751709 434.01444336 152.52612305 434.87263672 152.37255859 435.75683594 C150.78877624 444.75663115 148.66807509 453.34231219 145.44921875 461.90625 C145.18133545 462.63320068 144.91345215 463.36015137 144.63745117 464.10913086 C142.18792134 470.23974578 138.56220186 474.9226322 133.44921875 479.09375 C129.84487511 480.552651 126.61617946 480.79946227 122.82421875 480.15625 C115.79776875 476.924083 112.27353885 470.64979019 109.40625 463.73828125 C105.52011446 453.10554089 103.36572676 442.91680062 101.94921875 431.71875 C101.8652887 431.06384583 101.78135864 430.40894165 101.69488525 429.73419189 C100.13693781 417.52255283 98.88251929 405.28420372 97.69921875 393.03125 C97.61334503 392.14298523 97.52747131 391.25472046 97.43899536 390.33953857 C96.68580474 382.51762045 95.93604698 374.69612638 95.3046875 366.86328125 C94.5015799 357.04058694 93.16832455 347.37411441 91.51171875 337.65625 C91.32295166 336.50987061 91.13418457 335.36349121 90.93969727 334.18237305 C88.95304825 323.09393135 85.75307265 308.083435 76.01171875 301.15625 C72.10672085 299.93115262 68.80129072 299.00012443 64.82421875 300.15625 C54.84841748 307.2052666 52.1630457 322.23732127 49.88671875 333.46875 C49.63929932 334.68546387 49.39187988 335.90217773 49.13696289 337.15576172 C41.77367983 374.72292601 39.22493595 413.34669789 35.6105957 451.40570068 C27.11038234 540.56995264 27.11038234 540.56995264 5.76171875 560.15625 C0.72820146 564.19256103 -3.37305484 565.70312479 -9.83984375 565.53125 C-16.07339277 564.53054648 -20.92371162 560.08924425 -24.7421875 555.27734375 C-39.2725522 533.77873876 -43.40648001 504.24035387 -46.61328125 479.03125 C-46.82398254 477.43162415 -46.82398254 477.43162415 -47.03894043 475.79968262 C-50.15810951 452.09866468 -52.50420049 428.3134065 -54.77905273 404.51904297 C-58.34439024 362.39347468 -58.34439024 362.39347468 -67.11328125 321.15625 C-67.45613159 319.96467285 -67.45613159 319.96467285 -67.8059082 318.74902344 C-69.3087399 313.92052395 -71.33360772 309.9609416 -74.18969727 305.78515625 C-75.17578125 304.15625 -75.17578125 304.15625 -75.17578125 302.15625 C-79.39895122 300.04466502 -83.53760405 299.10172912 -88.17578125 300.15625 C-95.69614925 304.03636482 -98.92941202 311.3934639 -101.53955078 319.08740234 C-108.27952392 341.00395354 -109.65955991 364.77078815 -111.67578125 387.46875 C-112.86018223 400.73920719 -114.07994156 413.99493922 -115.71484375 427.21875 C-115.83251099 428.17924759 -115.95017822 429.13974518 -116.07141113 430.12934875 C-118.20907247 446.90261457 -120.90272472 467.66314976 -134.55078125 479.15625 C-138.16193785 480.53192871 -141.40186587 480.79640133 -145.17578125 480.15625 C-153.65126061 476.2575295 -157.66675491 467.11204753 -160.98950195 458.85107422 C-164.83002818 448.36586818 -166.34525896 437.12721502 -168.17578125 426.15625 C-168.31580566 425.33656738 -168.45583008 424.51688477 -168.60009766 423.67236328 C-170.36728637 413.19987916 -171.6170134 402.65875955 -172.91015625 392.11987305 C-175.46821151 342.53538236 -175.46821151 342.53538236 -197.17578125 301.15625 C-202.43568685 299.40294813 -207.27809995 299.30043294 -212.36328125 301.59375 C-227.03162906 314.95824467 -228.77185102 337.06582063 -231.73733521 355.57125854 C-239.48714619 403.70514016 -239.48714619 403.70514016 -250.17578125 414.15625 C-253.71383691 415.92527783 -257.32183713 415.78378366 -261.17578125 415.15625 C-268.21355395 411.8218214 -271.61411986 404.10789582 -274.17578125 397.15625 C-276.19583254 390.98428516 -277.89331071 384.72339201 -279.55908203 378.44824219 C-280.25653854 375.85611166 -281.03101688 373.2901791 -281.80078125 370.71875 C-283.22685469 365.47046811 -284.10836936 360.13245863 -285.05078125 354.78125 C-288.94760668 325.12174174 -288.94760668 325.12174174 -303.98828125 300.71875 C-308.92554159 299.44916877 -312.69848095 299.50623787 -317.30078125 301.53125 C-325.19515742 308.73915868 -328.57429623 319.57221426 -332.29882812 329.32226562 C-335.68710031 337.83373588 -340.38943074 347.26997958 -349.17578125 351.15625 C-354.4564923 351.90724933 -358.70811886 351.86290226 -363.55078125 349.53125 C-377.37230552 337.02606137 -380.9689732 318.04652481 -382.17578125 300.15625 C-383.11524879 279.95685056 -384.07710654 258.69991028 -378.17578125 239.15625 C-377.98322754 238.5075293 -377.79067383 237.85880859 -377.59228516 237.19042969 C-374.68242173 227.80204826 -370.37455831 219.84984518 -362.17578125 214.15625 C-358.22482138 212.18077007 -353.48211525 212.72317675 -349.17578125 213.15625 C-342.14821028 216.53989528 -338.12632396 222.70172083 -334.80078125 229.53125 C-334.50969482 230.12486328 -334.2186084 230.71847656 -333.91870117 231.33007812 C-331.32256832 236.69073411 -328.94412687 242.14933691 -326.66064453 247.64990234 C-323.79480269 254.42449649 -320.45915914 260.1254038 -314.17578125 264.15625 C-309.68838505 265.06800011 -306.50134266 265.0025237 -302.59375 262.5078125 C-294.53372066 254.669141 -291.68816121 240.72463044 -289.33203125 230.04296875 C-289.07001419 228.8601532 -289.07001419 228.8601532 -288.80270386 227.65344238 C-287.56361184 222.0190425 -286.38953494 216.37324684 -285.24609375 210.71875 C-284.92197685 209.12758342 -284.59775762 207.53643767 -284.2734375 205.9453125 C-283.78559212 203.55150065 -283.30098366 201.15727269 -282.82666016 198.76074219 C-275.01933406 159.42722468 -275.01933406 159.42722468 -263.12890625 150.19921875 C-259.4492969 148.23430736 -256.17878514 148.12710893 -252.17578125 149.15625 C-246.53696172 151.96438213 -243.65424684 156.94416087 -241.34765625 162.61328125 C-237.55839011 174.06949588 -235.52234892 185.97971211 -233.48046875 197.84765625 C-233.33171295 198.71049728 -233.18295715 199.57333832 -233.0296936 200.46232605 C-232.28597414 204.79409075 -231.55661927 209.12758835 -230.85009766 213.46557617 C-229.4775921 221.74425039 -227.87690134 229.87174292 -225.640625 237.96484375 C-225.44041748 238.6900824 -225.24020996 239.41532104 -225.03393555 240.16253662 C-222.44883999 249.13812502 -219.24564477 257.83747632 -211.17578125 263.15625 C-207.72170237 264.88328944 -203.95953658 264.51159398 -200.17578125 264.15625 C-192.90709767 261.18269763 -189.33001308 254.31905715 -186.36328125 247.44921875 C-184.53417608 242.37706197 -183.32501503 237.21091132 -182.20458984 231.94775391 C-181.55254493 228.89772238 -180.88571169 225.8518416 -180.20166016 222.80883789 C-177.6862475 211.45642788 -175.96821221 200.13665506 -174.61328125 188.59375 C-174.39920738 186.83112377 -174.18435281 185.0685922 -173.96875 183.30615234 C-173.05283331 175.77562821 -172.17339662 168.24235869 -171.3671875 160.69921875 C-164.91902122 100.43744316 -164.91902122 100.43744316 -148.23828125 85.53125 C-144.35673319 83.78851414 -141.35768659 83.32823274 -137.17578125 84.15625 C-127.83905673 89.00416465 -124.15892544 97.90898259 -121.109375 107.515625 C-113.49759808 135.81352506 -111.98093095 165.79990021 -109.62109375 194.8984375 C-107.70636579 230.91650843 -107.70636579 230.91650843 -91.86328125 261.78125 C-89.30938795 263.72998162 -87.32475006 264.60472847 -84.11328125 264.84375 C-79.51219985 264.04038658 -76.98167163 262.8039075 -74.17578125 259.15625 C-65.68807487 244.95077734 -63.13111876 227.20654459 -60.80078125 211.09375 C-60.65781616 210.13145477 -60.51485107 209.16915955 -60.36755371 208.17770386 C-56.91005821 184.71157132 -54.74309589 161.09898751 -52.57275391 137.48608398 C-50.56356683 115.64266587 -48.27864903 93.87611381 -44.73828125 72.21875 C-44.63217529 71.56712891 -44.52606934 70.91550781 -44.41674805 70.24414062 C-35.89378385 18.15725028 -35.89378385 18.15725028 -18.17578125 2.15625 C-12.83958442 -1.67189121 -6.15869979 -2.38829292 0 0 Z " fill="#FDFDFD" transform="translate(757.17578125,139.84375)"/>
<path d="M0 0 C0.99 0.66 1.98 1.32 3 2 C-3.54887218 4.14097744 -3.54887218 4.14097744 -6 3.375 C-8.08577832 2.74895654 -8.08577832 2.74895654 -9.921875 4.21484375 C-10.82679688 5.06755859 -10.82679688 5.06755859 -11.75 5.9375 C-12.67039062 6.78634766 -12.67039062 6.78634766 -13.609375 7.65234375 C-14.29773438 8.31943359 -14.29773438 8.31943359 -15 9 C-14.34 9.66 -13.68 10.32 -13 11 C-13.33 11.66 -13.66 12.32 -14 13 C-15.32 13 -16.64 13 -18 13 C-19.6446674 15.46326712 -19.6446674 15.46326712 -21 18 C-21.66 18 -22.32 18 -23 18 C-21.27706748 11.10826991 -17.42161638 6.1525479 -12.1875 1.5 C-8.08428651 -0.430924 -4.4722839 -0.7326027 0 0 Z " fill="#1C1C1C" transform="translate(557,439)"/>
<path d="M0 0 C0.66 0.99 1.32 1.98 2 3 C1.5390625 5.04296875 1.5390625 5.04296875 0.625 7.1875 C0.18027344 8.26064453 0.18027344 8.26064453 -0.2734375 9.35546875 C-0.51320313 9.89816406 -0.75296875 10.44085937 -1 11 C-1.99 11 -2.98 11 -4 11 C-5.68798827 12.43750191 -5.68798827 12.43750191 -7 14 C-8.32 13.34 -9.64 12.68 -11 12 C-9.25732713 10.1656075 -7.5328467 8.64963503 -5.5 7.125 C-2.93297093 4.94302529 -1.56170443 2.95901892 0 0 Z " fill="#1D1D1D" transform="translate(630,609)"/>
<path d="M0 0 C1.15224028 0.92961422 2.29659176 1.8690125 3.4375 2.8125 C4.07558594 3.33457031 4.71367188 3.85664062 5.37109375 4.39453125 C7 6 7 6 8 9 C5.69 9.66 3.38 10.32 1 11 C-0.64284201 8.04288438 -1.6442194 5.37991574 -2 2 C-1.34 1.34 -0.68 0.68 0 0 Z " fill="#1B1B1B" transform="translate(603,612)"/>
<path d="M0 0 C2.475 0.495 2.475 0.495 5 1 C6.97387813 5.76052962 7.0070238 8.96488101 6 14 C3.25983305 11.97465921 2.97857261 10.88896716 2.3125 7.4375 C2 4 2 4 2 2 C1.34 2 0.68 2 0 2 C0 1.34 0 0.68 0 0 Z " fill="#0C0C0C" transform="translate(897,227)"/>
<path d="M0 0 C4.41889613 1.35021826 6.34345343 3.26115668 9 7 C5.42355152 8.2380014 2.66305234 7.74926071 -1 7 C-0.649375 6.21625 -0.29875 5.4325 0.0625 4.625 C0.371875 3.75875 0.68125 2.8925 1 2 C0.67 1.34 0.34 0.68 0 0 Z " fill="#1A1A1A" transform="translate(730,695)"/>
<path d="M0 0 C0.99 0.33 1.98 0.66 3 1 C3 1.66 3 2.32 3 3 C2.34 3 1.68 3 1 3 C0.9175 3.598125 0.835 4.19625 0.75 4.8125 C-0.22177853 7.64685403 -1.48303554 8.4454043 -4 10 C-4.99 10.33 -5.98 10.66 -7 11 C-6.69894935 7.38739215 -6.29131912 6.25490423 -3.5 3.8125 C-2.675 3.214375 -1.85 2.61625 -1 2 C-0.67 1.34 -0.34 0.68 0 0 Z " fill="#212121" transform="translate(417,482)"/>
<path d="M0 0 C0.99 0.66 1.98 1.32 3 2 C-0.11016455 5.28788824 -3.01618925 7.83735988 -7 10 C-7 9.01 -7 8.02 -7 7 C-5.36739286 5.62517293 -3.69774938 4.29352333 -2 3 C-1.34 2.01 -0.68 1.02 0 0 Z " fill="#1C1C1C" transform="translate(898,610)"/>
<path d="M0 0 C2.12038635 2.61514317 4.13091744 5.19637616 6 8 C5.34 8 4.68 8 4 8 C3.67 8.66 3.34 9.32 3 10 C-1.06153846 4.58461538 -1.06153846 4.58461538 -0.75 1.625 C-0.5025 1.08875 -0.255 0.5525 0 0 Z " fill="#1B1B1B" transform="translate(986,545)"/>
<path d="M0 0 C0.66 0.66 1.32 1.32 2 2 C1.625 5.125 1.625 5.125 1 8 C-0.32 8.33 -1.64 8.66 -3 9 C-2.01 6.03 -1.02 3.06 0 0 Z " fill="#232323" transform="translate(659,449)"/>
<path d="M0 0 C0.91058531 3.07322544 1.08886184 5.80097361 1 9 C0.01 9.495 0.01 9.495 -1 10 C-1.12375 9.360625 -1.2475 8.72125 -1.375 8.0625 C-1.684375 7.0415625 -1.684375 7.0415625 -2 6 C-2.66 5.67 -3.32 5.34 -4 5 C-2.68 3.35 -1.36 1.7 0 0 Z " fill="#282828" transform="translate(438,442)"/>
<path d="M0 0 C0.66 1.32 1.32 2.64 2 4 C0.35 5.32 -1.3 6.64 -3 8 C-3.66 7.34 -4.32 6.68 -5 6 C-3.35 4.02 -1.7 2.04 0 0 Z " fill="#262626" transform="translate(512,547)"/>
<path d="M0 0 C2.0625 1.5625 2.0625 1.5625 4 4 C3.75 7.75 3.75 7.75 3 11 C2.34 10.34 1.68 9.68 1 9 C1.33 8.34 1.66 7.68 2 7 C1.34 6.67 0.68 6.34 0 6 C0 4.02 0 2.04 0 0 Z " fill="#1F1F1F" transform="translate(457,445)"/>
<path d="M0 0 C0.99 0 1.98 0 3 0 C3.66 0.66 4.32 1.32 5 2 C4.625 4.625 4.625 4.625 4 7 C0 2.25 0 2.25 0 0 Z " fill="#1F1F1F" transform="translate(418,361)"/>
<path d="M0 0 C0.78375 0.04125 1.5675 0.0825 2.375 0.125 C2.375 0.785 2.375 1.445 2.375 2.125 C3.035 2.455 3.695 2.785 4.375 3.125 C1.46017222 3.93467438 -0.08613217 4.34345993 -2.9375 3.1875 C-3.494375 2.836875 -4.05125 2.48625 -4.625 2.125 C-2.625 0.125 -2.625 0.125 0 0 Z " fill="#181818" transform="translate(877.625,618.875)"/>
<path d="M0 0 C-0.99 0.495 -0.99 0.495 -2 1 C-2.33 1.99 -2.66 2.98 -3 4 C-5.31 3.01 -7.62 2.02 -10 1 C-10 0.67 -10 0.34 -10 0 C-3.375 -1.125 -3.375 -1.125 0 0 Z " fill="#3B3B3B" transform="translate(508,555)"/>
<path d="M0 0 C3.96 0 7.92 0 12 0 C11.01 1.485 11.01 1.485 10 3 C6.7 2.34 3.4 1.68 0 1 C0 0.67 0 0.34 0 0 Z " fill="#2C2C2C" transform="translate(996,555)"/>
<path d="M0 0 C1.22589844 0.15275391 1.22589844 0.15275391 2.4765625 0.30859375 C3.41628906 0.43427734 3.41628906 0.43427734 4.375 0.5625 C4.375 0.8925 4.375 1.2225 4.375 1.5625 C-2.25 3.5625 -2.25 3.5625 -5.625 3.5625 C-5.955 2.5725 -6.285 1.5825 -6.625 0.5625 C-4.10446405 -0.69776798 -2.7707902 -0.35624445 0 0 Z " fill="#262626" transform="translate(400.625,490.4375)"/>
<path d="M0 0 C0.6875 1.6875 0.6875 1.6875 1 4 C-0.3125 6.75 -0.3125 6.75 -2 9 C-2.66 9 -3.32 9 -4 9 C-2.94124926 5.59687262 -1.99097846 2.98646769 0 0 Z " fill="#202020" transform="translate(538,448)"/>
<path d="M0 0 C3.65316671 1.24976756 4.78065836 1.67098753 7 5 C6.01 5.33 5.02 5.66 4 6 C4 5.01 4 4.02 4 3 C2.68 3.33 1.36 3.66 0 4 C0 2.68 0 1.36 0 0 Z " fill="#1E1E1E" transform="translate(1057,440)"/>
<path d="M0 0 C1.5625 1.8125 1.5625 1.8125 3 4 C2 7 2 7 -2 9 C-1.34 6.03 -0.68 3.06 0 0 Z " fill="#363636" transform="translate(779,666)"/>
<path d="M0 0 C0.99 0 1.98 0 3 0 C3.66 1.32 4.32 2.64 5 4 C4.34 4.66 3.68 5.32 3 6 C1.68 5.01 0.36 4.02 -1 3 C-0.67 2.01 -0.34 1.02 0 0 Z " fill="#1C1C1C" transform="translate(679,442)"/>
<path d="M0 0 C1.125 1.75 1.125 1.75 2 4 C1.125 6.25 1.125 6.25 0 8 C-0.99 7.67 -1.98 7.34 -3 7 C-2.01 4.69 -1.02 2.38 0 0 Z " fill="#181818" transform="translate(460,388)"/>
<path d="M0 0 C0.33 0.99 0.66 1.98 1 3 C-0.65 3.66 -2.3 4.32 -4 5 C-4 3.68 -4 2.36 -4 1 C-2 0 -2 0 0 0 Z " fill="#212121" transform="translate(671,439)"/>
</svg>
